<svg xmlns="http://www.w3.org/2000/svg" width="48" height="48" fill="none" id="blogger"><path fill="#F57D00" d="M24 48c13.255 0 24-10.745 24-24S37.255 0 24 0 0 10.745 0 24s10.745 24 24 24Z"></path><path fill="#fff" fill-rule="evenodd" d="M25.06 9.6h.133c4.378.12 7.576 3.677 7.716 7.425h.013c.006.059.008.12.01.183.002.053.004.105.008.156.088 1.057.076 2.21-.2 3.373.136.005.268.01.4.019 1.177.07 2.547.23 3.74 1.357 1.194 1.126 1.387 2.541 1.457 3.57.045.659.048 1.311.05 2.048.002.414.004.855.013 1.338v.086c-.028 2.586-.812 5.001-2.502 6.716-1.689 1.714-4.101 2.508-6.566 2.528H18.807c-2.636.027-5.19-.573-6.992-2.393-1.771-1.789-2.334-4.33-2.195-6.999h-.006c0-.013.002-.025.003-.038l.003-.036v-.049a.516.516 0 0 1 0-.05h.013l.187-11.458h.007c.054-1.485.393-3.106 1.476-4.6 1.38-1.905 3.97-3.078 6.935-3.071h.069L25.06 9.6Zm-6.522 16.8a2.527 2.527 0 0 0-2.197 1.19 2.316 2.316 0 0 0 0 2.42 2.526 2.526 0 0 0 2.197 1.19h11.724a2.526 2.526 0 0 0 2.197-1.19 2.316 2.316 0 0 0 0-2.42 2.527 2.527 0 0 0-2.197-1.19H18.538ZM16.8 18.32c.022-1.3 1.193-2.34 2.617-2.32l6.046.089c1.424.02 2.56 1.093 2.537 2.393-.023 1.301-1.197 2.339-2.62 2.318l-6.04-.089c-1.424-.02-2.561-1.09-2.54-2.39Z" clip-rule="evenodd"></path></svg>